<svg xmlns="http://www.w3.org/2000/svg" xmlns:xlink="http://www.w3.org/1999/xlink" viewBox="0 0 500 500">
  <defs>
    <radialGradient id="radial-gradient" cx="250" cy="250" r="250" gradientUnits="userSpaceOnUse">
      <stop offset="0.2" stop-color="#8c5cc4"/>
      <stop offset="1" stop-color="#662d91"/>
    </radialGradient>
    <radialGradient id="radial-gradient-2" cx="249.47" cy="365.14" r="27.5" gradientUnits="userSpaceOnUse">
      <stop offset="0.4" stop-color="#ffec00"/>
      <stop offset="1" stop-color="#ffbc00"/>
    </radialGradient>
    <radialGradient id="radial-gradient-3" cx="249.54" cy="273.87" r="57.78" xlink:href="#radial-gradient-2"/>
    <radialGradient id="radial-gradient-4" cx="100.49" cy="263.73" r="56.65" xlink:href="#radial-gradient-2"/>
    <radialGradient id="radial-gradient-5" cx="396.9" cy="263.86" r="56.63" xlink:href="#radial-gradient-2"/>
    <radialGradient id="radial-gradient-6" cx="181.33" cy="286.65" r="46.48" xlink:href="#radial-gradient-2"/>
    <radialGradient id="radial-gradient-7" cx="316.37" cy="286.64" r="46.35" xlink:href="#radial-gradient-2"/>
    <radialGradient id="radial-gradient-8" cx="250.18" cy="177.86" r="49.94" xlink:href="#radial-gradient-2"/>
    <radialGradient id="radial-gradient-9" cx="316.04" cy="194.66" r="36.68" xlink:href="#radial-gradient-2"/>
    <radialGradient id="radial-gradient-10" cx="183.25" cy="194.57" r="36.62" xlink:href="#radial-gradient-2"/>
    <radialGradient id="radial-gradient-11" cx="148.69" cy="214.89" r="42.22" xlink:href="#radial-gradient-2"/>
    <radialGradient id="radial-gradient-12" cx="349.57" cy="215.42" r="42.22" xlink:href="#radial-gradient-2"/>
    <radialGradient id="radial-gradient-13" cx="334.13" cy="347.48" r="35.21" xlink:href="#radial-gradient-2"/>
    <radialGradient id="radial-gradient-14" cx="165.72" cy="347.52" r="35.27" xlink:href="#radial-gradient-2"/>
    <radialGradient id="radial-gradient-15" cx="394.8" cy="321.39" r="32.03" xlink:href="#radial-gradient-2"/>
    <radialGradient id="radial-gradient-16" cx="105.32" cy="321.36" r="32.03" xlink:href="#radial-gradient-2"/>
    <radialGradient id="radial-gradient-17" cx="449.64" cy="273.07" r="19.01" xlink:href="#radial-gradient-2"/>
    <radialGradient id="radial-gradient-18" cx="50.32" cy="273" r="18.97" xlink:href="#radial-gradient-2"/>
    <radialGradient id="radial-gradient-19" cx="433.03" cy="299.52" r="19.54" xlink:href="#radial-gradient-2"/>
    <radialGradient id="radial-gradient-20" cx="66.98" cy="299.54" r="19.58" xlink:href="#radial-gradient-2"/>
  </defs>
  <title>icon</title>
  <g id="Layer_2" data-name="Layer 2">
    <rect width="500" height="500" fill="url(#radial-gradient)"/>
  </g>
  <g id="Layer_1" data-name="Layer 1">
    <g>
      <path d="M248.23,382.45c-1.52-.12-3-.21-4.55-.39a46,46,0,0,1-20.28-6.49,25.66,25.66,0,0,1-8.3-8.38,3,3,0,0,1-.37-2.29,33.21,33.21,0,0,1,6.38-14.35c.67-.82,1.44-1.52,2.17-2.36a4.17,4.17,0,0,1,.47-.36c2.36,6.07,7.22,9.38,13,11.46a37.43,37.43,0,0,0,27.06-.3A19.32,19.32,0,0,0,274,350.68c.5-.88.88-1.85,1.34-2.85a24.82,24.82,0,0,1,4.76,5.84,33.07,33.07,0,0,1,4.23,11.77,2.88,2.88,0,0,1-.43,1.72,25.2,25.2,0,0,1-8.84,8.78A45.55,45.55,0,0,1,257,381.86c-2.09.29-4.22.41-6.35.59Z" fill="url(#radial-gradient-2)"/>
      <path d="M249.49,200.9c1.34,2.22,2.66,4.25,3.83,6.36,5.59,10,11.45,19.85,16.7,30.05a155.92,155.92,0,0,1,14.78,42.93,78.89,78.89,0,0,1,.71,26.59c-2.57,16.13-11,28.15-25.43,35.84a103.83,103.83,0,0,1-9.6,4.07,2.32,2.32,0,0,1-1.38,0,50.2,50.2,0,0,1-27-18.5,47.25,47.25,0,0,1-8.33-20.1,79.5,79.5,0,0,1,1.07-30.77,164.62,164.62,0,0,1,17-45.31c5.54-10.08,11.34-20.05,17-30.05Z" fill="url(#radial-gradient-3)"/>
      <path d="M156.48,321c-2-.32-4.25-.6-6.45-1a113.57,113.57,0,0,1-45.31-19.3,96.92,96.92,0,0,1-34.93-46.34c-1.42-3.91-2.38-8-3.55-12a87.36,87.36,0,0,0-11.43-25.27A39.16,39.16,0,0,0,44.87,207a.84.84,0,0,1-.37-.53c1.86.15,3.75.29,5.61.48A198.89,198.89,0,0,1,81.74,213a138.77,138.77,0,0,1,30,11.78,78.11,78.11,0,0,1,23.7,18.72,2.19,2.19,0,0,1,.47,1.52,139.49,139.49,0,0,0-.35,25.44,102.43,102.43,0,0,0,4.7,24.64A58.86,58.86,0,0,0,152.69,317Z" fill="url(#radial-gradient-4)"/>
      <path d="M341.06,321.12c1.2-1.34,2.38-2.7,3.61-4a61,61,0,0,0,13.45-24.88,105.51,105.51,0,0,0,3.74-20.62,135.64,135.64,0,0,0,.14-22.17c-.11-1.52-.31-2.95-.37-4.44a2.35,2.35,0,0,1,.41-1.52,75,75,0,0,1,19-16.15A136,136,0,0,1,418,212.26a203,203,0,0,1,31.13-5.53,22.05,22.05,0,0,1,3.81-.09l-1.77,1.4a48.38,48.38,0,0,0-11.73,14.53,99.08,99.08,0,0,0-9.11,24.07,90.6,90.6,0,0,1-9.2,22.5c-11.21,20-27.73,34-48.59,43.14a112.4,112.4,0,0,1-29.67,8.52c-.64.09-1.28.15-1.92.21Z" fill="url(#radial-gradient-5)"/>
      <path d="M219.09,338.52a59.76,59.76,0,0,1-18.45,1.84,54.11,54.11,0,0,1-16.93-3.78,49.67,49.67,0,0,1-20.15-15,80.13,80.13,0,0,1-15.73-32.51,100,100,0,0,1-2.42-28c.25-6.08.52-12.15.64-18.1a18,18,0,0,0-2.47-10.18,2.62,2.62,0,0,1,.56,0,178,178,0,0,1,39.74,18.23,57.57,57.57,0,0,1,14.85,12.75,25.11,25.11,0,0,1,4.39,8,8.54,8.54,0,0,1,0,3.83,114.26,114.26,0,0,0-.91,23.74,68.16,68.16,0,0,0,6.49,26.23,38.34,38.34,0,0,0,9.84,12.42C218.57,338.2,218.73,338.28,219.09,338.52Z" fill="url(#radial-gradient-6)"/>
      <path d="M278.87,338.58c1.69-1.76,3.42-3.42,5-5.21a44.25,44.25,0,0,0,8.95-17.73,86.93,86.93,0,0,0,2.78-27.81c-.25-4.7-.88-9.38-1.29-14.07a5,5,0,0,1,.22-1.89,28,28,0,0,1,7.19-11.22A76.33,76.33,0,0,1,319,247.93a192.1,192.1,0,0,1,34.53-15h.39a43.83,43.83,0,0,0-1.7,4.56,43.4,43.4,0,0,0-.56,12.41c.33,7.45.88,14.89.5,22.36a84.7,84.7,0,0,1-16.05,46.71,50.41,50.41,0,0,1-32.75,20.62A58.57,58.57,0,0,1,278.87,338.58Z" fill="url(#radial-gradient-7)"/>
      <path d="M218.74,238.16c-.27-.54-.44-.83-.58-1.14a56.77,56.77,0,0,1-4.73-23.52,104.72,104.72,0,0,1,5.13-31.6,168.71,168.71,0,0,1,14-33.4q8.46-15.08,17-30l.56-.9.56.85c7.24,12,14.25,24,20.44,36.58a155.44,155.44,0,0,1,14.47,43.13,80.68,80.68,0,0,1,.82,23,49.79,49.79,0,0,1-4.72,16.32c0,.17-.17.35-.29.58a2.06,2.06,0,0,1-.23-.37,188.41,188.41,0,0,0-16.94-38.46q-6.84-11.87-13.67-23.75c-.15-.26-.32-.49-.53-.82-.18.26-.34.44-.46.65-7.22,12-14.12,24.12-20.45,36.57a168.4,168.4,0,0,0-10.05,25.11A7,7,0,0,1,218.74,238.16Z" fill="url(#radial-gradient-8)"/>
      <path d="M291.1,240.05c.83-3.18,1.68-6.08,2.35-9a109.78,109.78,0,0,0,2.8-27.87,59.69,59.69,0,0,0-4-21.09c-.4-.94-.85-1.87-1.32-2.92a144.33,144.33,0,0,1,48.85-29.88c.18,1.44.36,2.79.51,4.15a161.58,161.58,0,0,1,.81,21.67,93.35,93.35,0,0,1-2.69,20.78,3.14,3.14,0,0,1-1.67,2.19,165.54,165.54,0,0,0-17.24,10.63,95.44,95.44,0,0,0-19.74,19.74c-2.64,3.43-5.16,6.95-7.74,10.43Z" fill="url(#radial-gradient-9)"/>
      <path d="M208.07,239.91c-.7-1-1.32-1.79-1.92-2.63a202.27,202.27,0,0,0-13-16.61,89.87,89.87,0,0,0-21.26-17.28c-3.2-1.93-6.5-3.72-9.72-5.62a2.42,2.42,0,0,1-1-1.27,75.7,75.7,0,0,1-2.71-16.71,163.16,163.16,0,0,1,.29-22.33c.21-2.69.52-5.38.79-8.23,2.43,1,4.75,1.79,7,2.76a143.65,143.65,0,0,1,41.29,26.62.94.94,0,0,1,.26,1.3,50.34,50.34,0,0,0-4.56,17.6,108.71,108.71,0,0,0,4.35,41c.1.34.19.69.28,1A1.71,1.71,0,0,1,208.07,239.91Z" fill="url(#radial-gradient-10)"/>
      <path d="M198.77,247.4c-20.85-14.43-42.61-26.91-67.45-33.88a76.54,76.54,0,0,1,3.13,16.7,2.28,2.28,0,0,1-.36-.15c-6.62-5.89-14.14-10.52-21.57-15.19-1.67-1.06-3.32-2.14-5-3a13.51,13.51,0,0,1-5.21-6.64A37,37,0,0,1,99,192.35c-.27-3-.27-6.19-.4-9.29v-.67A185.69,185.69,0,0,1,155.54,208,186.58,186.58,0,0,1,198.77,247.4Z" fill="url(#radial-gradient-11)"/>
      <path d="M299.5,248a191.72,191.72,0,0,1,100.14-65.07v5.73a44.6,44.6,0,0,1-3.43,16.7,15.78,15.78,0,0,1-6.52,7.59,212.43,212.43,0,0,0-21.38,14.26c-1.42,1.11-2.78,2.29-4.35,3.58a67.37,67.37,0,0,1,3.18-16.7C342.2,220.93,320.36,233.46,299.5,248Z" fill="url(#radial-gradient-12)"/>
      <path d="M286.89,350.85c4.37-.12,8.7-.11,13-.41,10.38-.73,20.22-3.31,28.94-9.28a32.24,32.24,0,0,0,8.85-8.84,1,1,0,0,1,1.17-.54A28.34,28.34,0,0,1,351,337.05a60.63,60.63,0,0,1,12.56,11.75,21.92,21.92,0,0,0,11.11,7.32c2.14.67,4.31,1.26,6.68,1.94-.47.17-.77.29-1.09.38a113.3,113.3,0,0,1-37,4.7,159.1,159.1,0,0,1-55.53-11.86Z" fill="url(#radial-gradient-13)"/>
      <path d="M213.08,351c-3.75,1.36-7.47,2.82-11.25,4.1a159.77,159.77,0,0,1-32.55,7.18,134.68,134.68,0,0,1-30,.2,105.33,105.33,0,0,1-20-4.09l-.91-.33c1.62-.44,3-.72,4.39-1.2,2.58-.9,5.15-1.84,7.59-2.92a12.4,12.4,0,0,0,4.56-3.6,73.66,73.66,0,0,1,13.66-13.09A29.24,29.24,0,0,1,160,332a2.3,2.3,0,0,1,2.77,1.11,33.22,33.22,0,0,0,12.36,10.63,58.21,58.21,0,0,0,21.07,6.41,99.22,99.22,0,0,0,16.71.57Z" fill="url(#radial-gradient-14)"/>
      <path d="M437.4,325.6c-3.59,1.38-7.18,2.84-10.82,4.13a110.5,110.5,0,0,1-24.53,5.75c-14.91,1.69-29.45.4-43.39-5.52-1.72-.73-3.38-1.61-5.05-2.46-.55-.32-1.1-.67-1.62-1a3.49,3.49,0,0,1,.79-.18A82,82,0,0,0,394.13,312c2.23-1.52,4.25-3.35,6.41-5a1.86,1.86,0,0,1,1.35-.38,63.78,63.78,0,0,1,25.37,10.72c3.16,2.12,6.07,4.55,9.11,6.88.41.32.84.6,1.25.91Z" fill="url(#radial-gradient-15)"/>
      <path d="M148.13,326.43c-1.52.84-2.78,1.63-4.13,2.3a71.35,71.35,0,0,1-21.26,6.43c-17.23,2.56-33.9,0-50.11-5.7-3.16-1.13-6.24-2.45-9.37-3.68-.22-.09-.44-.23-.76-.39a5.37,5.37,0,0,1,.66-.76,85.16,85.16,0,0,1,23.59-14.79,55.14,55.14,0,0,1,11.53-3.27,1.8,1.8,0,0,1,1.25.47,77.79,77.79,0,0,0,15.39,10.34,81,81,0,0,0,25.32,8.1C142.71,325.86,145.25,326.08,148.13,326.43Z" fill="url(#radial-gradient-16)"/>
      <path d="M473.09,266.48c-1.79,1.89-3.43,3.8-5.24,5.52a58.79,58.79,0,0,1-25.46,14.1,3.19,3.19,0,0,1-1.68,0,44.82,44.82,0,0,0-11.25-2.69h-3.17l-.11-.22,1.7-1.6a48.59,48.59,0,0,0,10.33-12.72,87.57,87.57,0,0,0,3.4-8.1c.18-.42.27-.69.82-.73a73.62,73.62,0,0,1,21.43,2,24.25,24.25,0,0,1,8.07,3.65A4.66,4.66,0,0,1,473.09,266.48Z" fill="url(#radial-gradient-17)"/>
      <path d="M73.73,283.25c-5.18-.26-9.9,1.27-14.66,2.75a3,3,0,0,1-1.52,0,58.21,58.21,0,0,1-27.16-15.66c-1.19-1.23-2.28-2.55-3.48-3.9a19.5,19.5,0,0,1,5.42-3.24,45.84,45.84,0,0,1,14.25-3c3.56-.25,7.15-.19,10.73-.26.49,0,.81,0,1,.65a39.81,39.81,0,0,0,9.22,16.25C69.43,279.06,71.57,281.14,73.73,283.25Z" fill="url(#radial-gradient-18)"/>
      <path d="M407.79,302.59c2.16-1.52,4.38-3,6.4-4.73A25.58,25.58,0,0,0,421,289a1,1,0,0,1,1.06-.73,51.9,51.9,0,0,1,36.08,14.82.91.91,0,0,1,.17.23s-.09.14-.14.14c-6.79,0-13.27,1.79-19.74,3.64-3.78,1.08-7.5,2.37-11.25,3.56a1.53,1.53,0,0,1-1.15,0,60.54,60.54,0,0,0-16.71-7.6Z" fill="url(#radial-gradient-19)"/>
      <path d="M92.28,302.47c-3,1.11-6.07,2.13-9,3.25a38.38,38.38,0,0,0-9,4.72,1.54,1.54,0,0,1-1.52.22A157.55,157.55,0,0,0,51,304.49c-3-.56-6.08-.83-9.28-1.26,1.19-1.06,2.38-2.2,3.66-3.23a50.82,50.82,0,0,1,23.26-10.83,93.12,93.12,0,0,1,9.34-.85,1.19,1.19,0,0,1,1,.52A29.13,29.13,0,0,0,91,301.71,12.21,12.21,0,0,1,92.28,302.47Z" fill="url(#radial-gradient-20)"/>
    </g>
  </g>
</svg>
