<svg xmlns="http://www.w3.org/2000/svg" xmlns:xlink="http://www.w3.org/1999/xlink" width="81.891" height="46.703" viewBox="0 0 81.891 46.703">
  <defs>
    <style>
      .cls-1 {
        isolation: isolate;
      }

      .cls-2 {
        fill: url(#radial-gradient);
      }
    </style>
    <radialGradient id="radial-gradient" cx="0.5" cy="0.5" r="0.5" gradientUnits="objectBoundingBox">
      <stop offset="0" stop-color="#f7cc20"/>
      <stop offset="1" stop-color="#feb818"/>
    </radialGradient>
  </defs>
  <g id="Lotus" class="cls-1">
    <path id="Path_4" data-name="Path 4" class="cls-2" d="M129.969,158.279c-.279-.022-.558-.039-.837-.073a8.447,8.447,0,0,1-3.723-1.191,4.705,4.705,0,0,1-1.525-1.539.541.541,0,0,1-.067-.421,6.091,6.091,0,0,1,1.171-2.635c.123-.151.265-.279.4-.432a.581.581,0,0,1,.086-.067,3.672,3.672,0,0,0,2.39,2.106,6.88,6.88,0,0,0,4.97-.056,3.55,3.55,0,0,0,1.863-1.525c.092-.162.162-.34.245-.524a4.538,4.538,0,0,1,.876,1.074,6.058,6.058,0,0,1,.775,2.161.521.521,0,0,1-.078.315,4.633,4.633,0,0,1-1.623,1.612,8.339,8.339,0,0,1-3.319,1.088c-.385.053-.775.075-1.166.109Z" transform="translate(-89.349 -111.576)"/>
    <path id="Path_5" data-name="Path 5" class="cls-2" d="M129.308,55.16c.245.407.488.781.7,1.169,1.026,1.835,2.1,3.645,3.068,5.519a28.624,28.624,0,0,1,2.714,7.884,14.5,14.5,0,0,1,.131,4.883,8.622,8.622,0,0,1-4.671,6.582,18.554,18.554,0,0,1-1.763.747.416.416,0,0,1-.254,0,9.2,9.2,0,0,1-4.956-3.4,8.673,8.673,0,0,1-1.531-3.692,14.6,14.6,0,0,1,.2-5.65,30.228,30.228,0,0,1,3.115-8.322c1.018-1.852,2.083-3.681,3.126-5.519Z" transform="translate(-88.456 -41.8)"/>
    <path id="Path_6" data-name="Path 6" class="cls-2" d="M32.318,79.85c-.371-.059-.781-.112-1.185-.19a20.86,20.86,0,0,1-8.322-3.545A17.79,17.79,0,0,1,16.4,67.6c-.262-.717-.438-1.461-.653-2.195a16.066,16.066,0,0,0-2.1-4.641A7.209,7.209,0,0,0,11.82,58.9a.162.162,0,0,1-.07-.1c.343.028.689.053,1.032.089A36.419,36.419,0,0,1,18.591,60,25.579,25.579,0,0,1,24.1,62.169a14.343,14.343,0,0,1,4.353,3.439.407.407,0,0,1,.086.279,25.379,25.379,0,0,0-.064,4.671,18.8,18.8,0,0,0,.862,4.526,10.84,10.84,0,0,0,2.281,4.021Z" transform="translate(-8.521 -43.629)"/>
    <path id="Path_7" data-name="Path 7" class="cls-2" d="M206.978,79.945c.22-.245.438-.5.664-.739a11.2,11.2,0,0,0,2.471-4.571,19.417,19.417,0,0,0,.686-3.787,24.821,24.821,0,0,0,.025-4.072c-.02-.279-.056-.541-.067-.814a.424.424,0,0,1,.075-.279,13.723,13.723,0,0,1,3.5-2.967,24.958,24.958,0,0,1,6.771-2.764,37.449,37.449,0,0,1,5.717-1.015,4.158,4.158,0,0,1,.7-.017l-.326.257a8.9,8.9,0,0,0-2.153,2.669,18.171,18.171,0,0,0-1.673,4.42,16.676,16.676,0,0,1-1.69,4.133,18.316,18.316,0,0,1-8.924,7.923,20.679,20.679,0,0,1-5.449,1.565c-.117.017-.234.028-.351.039Z" transform="translate(-149.336 -43.712)"/>
    <path id="Path_8" data-name="Path 8" class="cls-2" d="M90.869,95.606a11.017,11.017,0,0,1-3.388.337,9.928,9.928,0,0,1-3.11-.694,9.12,9.12,0,0,1-3.7-2.747,14.733,14.733,0,0,1-2.889-5.971,18.39,18.39,0,0,1-.443-5.137c.045-1.116.095-2.231.117-3.324A3.3,3.3,0,0,0,77,76.2a.383.383,0,0,1,.1,0,32.657,32.657,0,0,1,7.3,3.347,10.55,10.55,0,0,1,2.727,2.343,4.6,4.6,0,0,1,.806,1.473,1.533,1.533,0,0,1,0,.7,21.127,21.127,0,0,0-.167,4.362,12.494,12.494,0,0,0,1.194,4.816,7.017,7.017,0,0,0,1.807,2.281C90.774,95.547,90.8,95.561,90.869,95.606Z" transform="translate(-55.59 -56.451)"/>
    <path id="Path_9" data-name="Path 9" class="cls-2" d="M166.1,95.637c.31-.324.627-.628.915-.957a8.152,8.152,0,0,0,1.643-3.257,15.921,15.921,0,0,0,.51-5.106c-.045-.865-.162-1.723-.237-2.585a.915.915,0,0,1,.042-.346,5.123,5.123,0,0,1,1.319-2.061,14.08,14.08,0,0,1,3.168-2.337,35.261,35.261,0,0,1,6.342-2.761.532.532,0,0,1,.073,0,7.721,7.721,0,0,0-.312.837,7.92,7.92,0,0,0-.1,2.278c.061,1.369.162,2.736.092,4.108a15.568,15.568,0,0,1-2.948,8.578,9.262,9.262,0,0,1-6.015,3.787A10.765,10.765,0,0,1,166.1,95.637Z" transform="translate(-119.861 -56.471)"/>
    <path id="Path_10" data-name="Path 10" class="cls-2" d="M123.973,22.422c-.05-.1-.081-.153-.106-.209a10.422,10.422,0,0,1-.87-4.32,19.243,19.243,0,0,1,.943-5.8,30.957,30.957,0,0,1,2.574-6.135q1.556-2.767,3.132-5.519l.1-.165.1.156c1.33,2.2,2.616,4.418,3.754,6.718a28.549,28.549,0,0,1,2.658,7.92,14.849,14.849,0,0,1,.151,4.217,9.154,9.154,0,0,1-.867,3c0,.031-.031.064-.053.106a.343.343,0,0,1-.042-.067,34.554,34.554,0,0,0-3.112-7.064q-1.255-2.178-2.51-4.362c-.028-.047-.059-.089-.1-.151-.033.047-.061.081-.084.12-1.327,2.2-2.594,4.429-3.757,6.716a30.956,30.956,0,0,0-1.846,4.613A1.289,1.289,0,0,1,123.973,22.422Z" transform="translate(-88.769 -0.27)"/>
    <path id="Path_11" data-name="Path 11" class="cls-2" d="M174.063,37.832c.153-.583.31-1.116.432-1.657a20.13,20.13,0,0,0,.513-5.118,10.9,10.9,0,0,0-.736-3.874c-.073-.173-.156-.343-.243-.535A26.493,26.493,0,0,1,183,21.16c.033.265.067.513.095.761a29.64,29.64,0,0,1,.148,3.98,17.12,17.12,0,0,1-.494,3.818.574.574,0,0,1-.307.4,30.179,30.179,0,0,0-3.165,1.952,17.48,17.48,0,0,0-3.625,3.625c-.485.63-.948,1.277-1.422,1.916Z" transform="translate(-125.579 -15.334)"/>
    <path id="Path_12" data-name="Path 12" class="cls-2" d="M95.8,37.785c-.128-.178-.243-.329-.351-.482a37.107,37.107,0,0,0-2.39-3.051,16.528,16.528,0,0,0-3.9-3.174c-.588-.354-1.194-.683-1.785-1.032a.446.446,0,0,1-.181-.234,13.906,13.906,0,0,1-.5-3.068,29.86,29.86,0,0,1,.053-4.1c.039-.494.095-.987.145-1.512.446.176.873.329,1.291.508a26.407,26.407,0,0,1,7.583,4.889.173.173,0,0,1,.047.24A9.24,9.24,0,0,0,94.972,30a19.988,19.988,0,0,0,.8,7.53c.02.061.036.125.053.187A.341.341,0,0,1,95.8,37.785Z" transform="translate(-62.545 -15.312)"/>
    <path id="Path_13" data-name="Path 13" class="cls-2" d="M65.785,54.909A41.543,41.543,0,0,0,53.4,48.687a14.1,14.1,0,0,1,.575,3.068.44.44,0,0,1-.067-.028,29.034,29.034,0,0,0-3.96-2.789c-.307-.2-.611-.393-.923-.558a2.479,2.479,0,0,1-.957-1.219,6.8,6.8,0,0,1-.6-2.362c-.05-.558-.05-1.138-.073-1.707V42.97a35.229,35.229,0,0,1,18.4,11.939Z" transform="translate(-34.232 -31.694)"/>
    <path id="Path_14" data-name="Path 14" class="cls-2" d="M179.68,55.25A35.22,35.22,0,0,1,198.072,43.3c0,.365,0,.708,0,1.051a8.167,8.167,0,0,1-.63,3.068,2.9,2.9,0,0,1-1.2,1.394,38.834,38.834,0,0,0-3.927,2.619c-.262.2-.51.421-.8.658a12.457,12.457,0,0,1,.586-3.068A40.846,40.846,0,0,0,179.68,55.25Z" transform="translate(-129.66 -31.937)"/>
    <path id="Path_15" data-name="Path 15" class="cls-2" d="M171.38,144.838c.8-.022,1.6-.02,2.39-.075a10.474,10.474,0,0,0,5.315-1.7,5.926,5.926,0,0,0,1.626-1.623.187.187,0,0,1,.215-.1,5.22,5.22,0,0,1,2.231.968,11.085,11.085,0,0,1,2.306,2.159,4.024,4.024,0,0,0,2.041,1.344c.393.123.792.231,1.227.357-.086.031-.142.053-.2.07a20.81,20.81,0,0,1-6.8.862,29.191,29.191,0,0,1-10.2-2.178Z" transform="translate(-123.672 -103.938)"/>
    <path id="Path_16" data-name="Path 16" class="cls-2" d="M77.794,144.907c-.689.251-1.372.519-2.067.753a29.376,29.376,0,0,1-5.976,1.319,24.719,24.719,0,0,1-5.505.036,19.4,19.4,0,0,1-3.678-.75L60.4,146.2c.3-.081.558-.131.806-.22.474-.165.945-.337,1.394-.535a2.278,2.278,0,0,0,.837-.661,13.5,13.5,0,0,1,2.51-2.4,5.349,5.349,0,0,1,2.1-.971.421.421,0,0,1,.508.2,6.11,6.11,0,0,0,2.27,1.952,10.67,10.67,0,0,0,3.871,1.177,18.219,18.219,0,0,0,3.068.106Z" transform="translate(-43.617 -103.983)"/>
    <path id="Path_17" data-name="Path 17" class="cls-2" d="M229.937,128.261c-.661.254-1.319.522-1.988.759a20.306,20.306,0,0,1-4.5,1.057,15.541,15.541,0,0,1-7.97-1.015c-.315-.134-.619-.3-.926-.452a3.5,3.5,0,0,1-.3-.19.654.654,0,0,1,.145-.033,15.06,15.06,0,0,0,7.594-2.624c.41-.279.781-.616,1.177-.918a.351.351,0,0,1,.248-.07,11.73,11.73,0,0,1,4.66,1.969c.58.39,1.116.837,1.673,1.263.075.059.153.112.229.167Z" transform="translate(-154.6 -91.617)"/>
    <path id="Path_18" data-name="Path 18" class="cls-2" d="M39.336,128.4c-.279.153-.51.3-.759.421a13.137,13.137,0,0,1-3.9,1.182,18.993,18.993,0,0,1-9.2-1.049c-.58-.206-1.146-.449-1.721-.675-.042-.017-.081-.042-.139-.072a1.03,1.03,0,0,1,.12-.139,15.67,15.67,0,0,1,4.334-2.716,10.127,10.127,0,0,1,2.117-.6.323.323,0,0,1,.229.086,14.337,14.337,0,0,0,2.828,1.9,14.837,14.837,0,0,0,4.649,1.486C38.341,128.292,38.806,128.333,39.336,128.4Z" transform="translate(-17.073 -91.599)"/>
    <path id="Path_19" data-name="Path 19" class="cls-2" d="M271.725,95.24c-.329.346-.63.7-.962,1.012a10.8,10.8,0,0,1-4.677,2.591.575.575,0,0,1-.307,0,8.243,8.243,0,0,0-2.067-.494h-.583l-.02-.042.312-.293a8.9,8.9,0,0,0,1.9-2.337c.248-.474.424-.987.625-1.486.033-.078.05-.128.151-.134a13.436,13.436,0,0,1,3.935.365,4.461,4.461,0,0,1,1.484.669A.867.867,0,0,1,271.725,95.24Z" transform="translate(-189.834 -69.05)"/>
    <path id="Path_20" data-name="Path 20" class="cls-2" d="M8.768,98.306a7.707,7.707,0,0,0-2.691.5.53.53,0,0,1-.279,0A10.676,10.676,0,0,1,.809,95.936C.591,95.71.39,95.467.17,95.219a3.545,3.545,0,0,1,1-.594,8.427,8.427,0,0,1,2.616-.558c.655-.045,1.314-.033,1.972-.047.089,0,.148,0,.178.12a7.29,7.29,0,0,0,1.693,2.984C7.979,97.537,8.372,97.919,8.768,98.306Z" transform="translate(-0.17 -69.037)"/>
    <path id="Path_21" data-name="Path 21" class="cls-2" d="M251,115.328c.4-.279.8-.558,1.174-.87a4.685,4.685,0,0,0,1.244-1.626.184.184,0,0,1,.2-.134,9.524,9.524,0,0,1,6.626,2.722.147.147,0,0,1,.031.042s-.017.025-.025.025a13.189,13.189,0,0,0-3.625.669c-.694.2-1.378.435-2.066.653a.279.279,0,0,1-.212,0,11.072,11.072,0,0,0-3.068-1.394Z" transform="translate(-181.101 -82.715)"/>
    <path id="Path_22" data-name="Path 22" class="cls-2" d="M19.185,115.329c-.558.2-1.116.39-1.659.6a7.088,7.088,0,0,0-1.645.867.279.279,0,0,1-.279.039,28.742,28.742,0,0,0-4.008-1.132c-.558-.1-1.116-.153-1.7-.231.218-.2.438-.4.672-.594a9.348,9.348,0,0,1,4.272-1.988c.558-.1,1.143-.112,1.715-.156a.22.22,0,0,1,.176.095,5.352,5.352,0,0,0,2.231,2.365A2.29,2.29,0,0,1,19.185,115.329Z" transform="translate(-7.179 -82.739)"/>
  </g>
</svg>
