<svg xmlns="http://www.w3.org/2000/svg" xmlns:xlink="http://www.w3.org/1999/xlink" width="69" height="40.966" viewBox="0 0 69 40.966">
  <defs>
    <radialGradient id="radial-gradient" cx="0.5" cy="0.5" r="0.5" gradientUnits="objectBoundingBox">
      <stop offset="0" stop-color="#f5d65a"/>
      <stop offset="1" stop-color="#d2a121"/>
    </radialGradient>
  </defs>
  <g id="Lotus" style="isolation: isolate">
    <path id="Path_4" data-name="Path 4" d="M129.212,157.5c-.245-.02-.489-.034-.734-.064a7.41,7.41,0,0,1-3.266-1.045,4.127,4.127,0,0,1-1.338-1.35.475.475,0,0,1-.059-.369,5.343,5.343,0,0,1,1.027-2.312c.108-.132.232-.245.35-.379a.511.511,0,0,1,.076-.059,3.221,3.221,0,0,0,2.1,1.847,6.035,6.035,0,0,0,4.359-.049,3.114,3.114,0,0,0,1.634-1.338c.081-.142.142-.3.215-.46a3.98,3.98,0,0,1,.768.942,5.313,5.313,0,0,1,.68,1.9.457.457,0,0,1-.068.276,4.063,4.063,0,0,1-1.424,1.414,7.315,7.315,0,0,1-2.911.954c-.338.046-.68.066-1.023.1Z" transform="translate(-94.993 -116.531)" fill="url(#radial-gradient)"/>
    <path id="Path_5" data-name="Path 5" d="M128.48,55.16c.215.357.428.685.616,1.025.9,1.61,1.844,3.2,2.691,4.841a25.109,25.109,0,0,1,2.38,6.916,12.721,12.721,0,0,1,.115,4.283,7.563,7.563,0,0,1-4.1,5.773,16.275,16.275,0,0,1-1.546.656.364.364,0,0,1-.223,0,8.073,8.073,0,0,1-4.347-2.98,7.608,7.608,0,0,1-1.343-3.239,12.806,12.806,0,0,1,.174-4.956,26.515,26.515,0,0,1,2.732-7.3c.893-1.624,1.827-3.229,2.742-4.841Z" transform="translate(-94.058 -43.441)" fill="url(#radial-gradient)"/>
    <path id="Path_6" data-name="Path 6" d="M29.791,77.264c-.325-.051-.685-.1-1.04-.166a18.3,18.3,0,0,1-7.3-3.109,15.6,15.6,0,0,1-5.626-7.466c-.23-.629-.384-1.282-.572-1.925a14.093,14.093,0,0,0-1.842-4.071,6.324,6.324,0,0,0-1.6-1.641.142.142,0,0,1-.061-.086c.3.024.6.046.905.078a31.944,31.944,0,0,1,5.1.979,22.437,22.437,0,0,1,4.834,1.9A12.581,12.581,0,0,1,26.4,64.771a.357.357,0,0,1,.076.245,22.261,22.261,0,0,0-.056,4.1,16.488,16.488,0,0,0,.756,3.97,9.509,9.509,0,0,0,2,3.528Z" transform="translate(-8.917 -45.493)" fill="url(#radial-gradient)"/>
    <path id="Path_7" data-name="Path 7" d="M206.974,77.362c.193-.215.384-.435.582-.648a9.822,9.822,0,0,0,2.167-4.009,17.032,17.032,0,0,0,.6-3.322,21.77,21.77,0,0,0,.022-3.572c-.017-.245-.049-.475-.059-.714a.372.372,0,0,1,.066-.245,12.037,12.037,0,0,1,3.068-2.6,21.892,21.892,0,0,1,5.94-2.424,32.849,32.849,0,0,1,5.015-.89,3.649,3.649,0,0,1,.614-.015l-.286.225a7.81,7.81,0,0,0-1.888,2.341,15.937,15.937,0,0,0-1.468,3.877,14.628,14.628,0,0,1-1.482,3.625,16.066,16.066,0,0,1-7.828,6.95,18.139,18.139,0,0,1-4.78,1.372c-.1.015-.205.024-.308.034Z" transform="translate(-159.245 -45.579)" fill="url(#radial-gradient)"/>
    <path id="Path_8" data-name="Path 8" d="M89.165,93.222a9.663,9.663,0,0,1-2.972.3,8.709,8.709,0,0,1-2.728-.609,8,8,0,0,1-3.246-2.41,12.924,12.924,0,0,1-2.534-5.237,16.131,16.131,0,0,1-.389-4.506c.039-.979.083-1.957.1-2.916A2.894,2.894,0,0,0,77,76.2a.337.337,0,0,1,.091,0,28.646,28.646,0,0,1,6.4,2.936,9.254,9.254,0,0,1,2.392,2.055,4.031,4.031,0,0,1,.707,1.292,1.345,1.345,0,0,1,0,.616,18.532,18.532,0,0,0-.147,3.826,10.959,10.959,0,0,0,1.047,4.225,6.155,6.155,0,0,0,1.585,2C89.082,93.17,89.107,93.183,89.165,93.222Z" transform="translate(-59.111 -58.876)" fill="url(#radial-gradient)"/>
    <path id="Path_9" data-name="Path 9" d="M166.1,93.253c.272-.284.55-.55.8-.839a7.15,7.15,0,0,0,1.441-2.857,13.966,13.966,0,0,0,.448-4.479c-.039-.758-.142-1.512-.208-2.268a.8.8,0,0,1,.037-.3,4.494,4.494,0,0,1,1.157-1.808,12.351,12.351,0,0,1,2.779-2.05,30.93,30.93,0,0,1,5.563-2.422.468.468,0,0,1,.064,0,6.775,6.775,0,0,0-.274.734,6.948,6.948,0,0,0-.091,2c.054,1.2.142,2.4.081,3.6a13.655,13.655,0,0,1-2.586,7.525,8.124,8.124,0,0,1-5.277,3.322A9.443,9.443,0,0,1,166.1,93.253Z" transform="translate(-127.463 -58.897)" fill="url(#radial-gradient)"/>
    <path id="Path_10" data-name="Path 10" d="M123.853,19.7c-.044-.088-.071-.135-.093-.183A9.142,9.142,0,0,1,123,15.728a16.879,16.879,0,0,1,.827-5.091,27.154,27.154,0,0,1,2.258-5.382q1.365-2.427,2.747-4.841L128.92.27l.091.137C130.177,2.335,131.3,4.282,132.3,6.3a25.042,25.042,0,0,1,2.331,6.947,13.024,13.024,0,0,1,.132,3.7,8.029,8.029,0,0,1-.761,2.63c0,.027-.027.056-.046.093a.3.3,0,0,1-.037-.059,30.311,30.311,0,0,0-2.73-6.2q-1.1-1.911-2.2-3.826c-.024-.042-.051-.078-.086-.132-.029.042-.054.071-.073.105-1.164,1.928-2.275,3.885-3.3,5.891a27.153,27.153,0,0,0-1.619,4.046A1.131,1.131,0,0,1,123.853,19.7Z" transform="translate(-94.39 -0.27)" fill="url(#radial-gradient)"/>
    <path id="Path_11" data-name="Path 11" d="M174.059,35.784c.135-.511.272-.979.379-1.453a17.657,17.657,0,0,0,.45-4.489,9.565,9.565,0,0,0-.646-3.4c-.064-.152-.137-.3-.213-.47a23.239,23.239,0,0,1,7.87-4.814c.029.232.059.45.083.668a26,26,0,0,1,.13,3.491,15.016,15.016,0,0,1-.433,3.349.5.5,0,0,1-.269.352,26.469,26.469,0,0,0-2.777,1.712,15.333,15.333,0,0,0-3.18,3.18c-.426.553-.832,1.12-1.248,1.681Z" transform="translate(-133.419 -16.05)" fill="url(#radial-gradient)"/>
    <path id="Path_12" data-name="Path 12" d="M94.673,35.739c-.113-.157-.213-.289-.308-.423a32.548,32.548,0,0,0-2.1-2.676,14.5,14.5,0,0,0-3.425-2.784c-.516-.311-1.047-.6-1.566-.905a.391.391,0,0,1-.159-.205,12.2,12.2,0,0,1-.435-2.691,26.19,26.19,0,0,1,.046-3.6c.034-.433.083-.866.127-1.326.391.154.766.289,1.133.445a23.164,23.164,0,0,1,6.651,4.288.152.152,0,0,1,.042.21,8.1,8.1,0,0,0-.734,2.835,17.532,17.532,0,0,0,.7,6.6c.017.054.032.11.046.164A.3.3,0,0,1,94.673,35.739Z" transform="translate(-66.444 -16.027)" fill="url(#radial-gradient)"/>
    <path id="Path_13" data-name="Path 13" d="M63.526,53.442a36.44,36.44,0,0,0-10.866-5.458,12.366,12.366,0,0,1,.5,2.691.387.387,0,0,1-.059-.024,25.469,25.469,0,0,0-3.474-2.446c-.269-.171-.536-.345-.81-.489a2.175,2.175,0,0,1-.839-1.069,5.966,5.966,0,0,1-.528-2.072c-.044-.489-.044-1-.064-1.5V42.97A30.9,30.9,0,0,1,63.526,53.442Z" transform="translate(-36.435 -33.079)" fill="url(#radial-gradient)"/>
    <path id="Path_14" data-name="Path 14" d="M179.68,53.782A30.894,30.894,0,0,1,195.813,43.3c0,.32,0,.621,0,.922a7.162,7.162,0,0,1-.553,2.691,2.547,2.547,0,0,1-1.049,1.223,34.064,34.064,0,0,0-3.444,2.3c-.23.179-.448.369-.7.577a10.928,10.928,0,0,1,.514-2.691A35.829,35.829,0,0,0,179.68,53.782Z" transform="translate(-138.035 -33.333)" fill="url(#radial-gradient)"/>
    <path id="Path_15" data-name="Path 15" d="M171.38,144.407c.7-.02,1.4-.017,2.1-.066a9.187,9.187,0,0,0,4.663-1.495,5.2,5.2,0,0,0,1.426-1.424.164.164,0,0,1,.188-.088,4.579,4.579,0,0,1,1.957.849,9.723,9.723,0,0,1,2.023,1.893,3.53,3.53,0,0,0,1.791,1.179c.345.108.695.2,1.076.313-.076.027-.125.046-.176.061a18.254,18.254,0,0,1-5.962.756,25.605,25.605,0,0,1-8.946-1.911Z" transform="translate(-131.625 -108.531)" fill="url(#radial-gradient)"/>
    <path id="Path_16" data-name="Path 16" d="M75.657,144.475c-.6.22-1.2.455-1.813.66a25.767,25.767,0,0,1-5.242,1.157,21.682,21.682,0,0,1-4.829.032,17.022,17.022,0,0,1-3.227-.658l-.147-.054c.262-.071.489-.115.707-.193.416-.144.829-.3,1.223-.47a2,2,0,0,0,.734-.58,11.845,11.845,0,0,1,2.2-2.109,4.692,4.692,0,0,1,1.84-.851.369.369,0,0,1,.445.179,5.36,5.36,0,0,0,1.991,1.712,9.359,9.359,0,0,0,3.4,1.032,15.98,15.98,0,0,0,2.691.093Z" transform="translate(-46.415 -108.578)" fill="url(#radial-gradient)"/>
    <path id="Path_17" data-name="Path 17" d="M228.01,127.833c-.58.223-1.157.457-1.744.665a17.811,17.811,0,0,1-3.951.927,13.633,13.633,0,0,1-6.991-.89c-.276-.117-.543-.259-.812-.4a3.077,3.077,0,0,1-.262-.166.575.575,0,0,1,.127-.029,13.21,13.21,0,0,0,6.661-2.3c.36-.245.685-.541,1.032-.8a.308.308,0,0,1,.218-.061,10.289,10.289,0,0,1,4.088,1.727c.509.342.979.734,1.468,1.108.066.051.135.1.2.147Z" transform="translate(-164.759 -95.69)" fill="url(#radial-gradient)"/>
    <path id="Path_18" data-name="Path 18" d="M37.4,127.949c-.245.135-.448.262-.665.369a11.524,11.524,0,0,1-3.425,1.037,16.66,16.66,0,0,1-8.073-.92c-.509-.181-1.005-.394-1.509-.592-.037-.015-.071-.037-.122-.064a.9.9,0,0,1,.105-.122,13.745,13.745,0,0,1,3.8-2.383,8.885,8.885,0,0,1,1.857-.526.284.284,0,0,1,.2.076,12.577,12.577,0,0,0,2.481,1.666,13.014,13.014,0,0,0,4.078,1.3C36.531,127.856,36.94,127.893,37.4,127.949Z" transform="translate(-17.876 -95.671)" fill="url(#radial-gradient)"/>
    <path id="Path_19" data-name="Path 19" d="M270.666,95.092c-.289.3-.553.612-.844.888a9.472,9.472,0,0,1-4.1,2.273.5.5,0,0,1-.269,0,7.231,7.231,0,0,0-1.813-.433h-.511l-.017-.037.274-.257a7.8,7.8,0,0,0,1.663-2.05c.218-.416.372-.866.548-1.3.029-.068.044-.113.132-.117a11.786,11.786,0,0,1,3.452.32,3.913,3.913,0,0,1,1.3.587A.759.759,0,0,1,270.666,95.092Z" transform="translate(-201.666 -72.119)" fill="url(#radial-gradient)"/>
    <path id="Path_20" data-name="Path 20" d="M7.712,97.78a6.76,6.76,0,0,0-2.361.443.465.465,0,0,1-.245,0A9.364,9.364,0,0,1,.73,95.7c-.191-.2-.367-.411-.56-.629a3.109,3.109,0,0,1,.873-.521,7.392,7.392,0,0,1,2.295-.489c.575-.039,1.152-.029,1.73-.042.078,0,.13,0,.157.105a6.4,6.4,0,0,0,1.485,2.618C7.02,97.1,7.364,97.44,7.712,97.78Z" transform="translate(-0.17 -72.105)" fill="url(#radial-gradient)"/>
    <path id="Path_21" data-name="Path 21" d="M251,115c.347-.245.7-.489,1.03-.763a4.109,4.109,0,0,0,1.091-1.426.161.161,0,0,1,.171-.117,8.354,8.354,0,0,1,5.812,2.388.13.13,0,0,1,.027.037s-.015.022-.022.022a11.569,11.569,0,0,0-3.18.587c-.609.174-1.208.382-1.813.572a.245.245,0,0,1-.186,0,9.712,9.712,0,0,0-2.691-1.223Z" transform="translate(-192.519 -86.398)" fill="url(#radial-gradient)"/>
    <path id="Path_22" data-name="Path 22" d="M18.043,115.01c-.489.179-.979.342-1.456.524a6.218,6.218,0,0,0-1.443.761.245.245,0,0,1-.245.034,25.212,25.212,0,0,0-3.515-.993c-.489-.091-.979-.135-1.495-.2.191-.171.384-.355.59-.521a8.2,8.2,0,0,1,3.748-1.744c.489-.088,1-.1,1.5-.137a.193.193,0,0,1,.154.083,4.694,4.694,0,0,0,1.957,2.074A2.007,2.007,0,0,1,18.043,115.01Z" transform="translate(-7.512 -86.423)" fill="url(#radial-gradient)"/>
  </g>
</svg>
